<svg viewBox="0 0 1731.33 1072.54" xmlns="http://www.w3.org/2000/svg"><defs><style>.cls-1{fill:#edf3ff;}.cls-15,.cls-19,.cls-2,.cls-23,.cls-24,.cls-40,.cls-48,.cls-5,.cls-50{fill:none;}.cls-2,.cls-46,.cls-5,.cls-50{stroke:#016efc;}.cls-2,.cls-23,.cls-24,.cls-40,.cls-46,.cls-48,.cls-5,.cls-50{stroke-miterlimit:10;}.cls-15,.cls-2,.cls-23,.cls-24,.cls-48,.cls-5{stroke-width:1.71px;}.cls-2{opacity:0.25;}.cls-2,.cls-26,.cls-27{isolation:isolate;}.cls-3{fill:#c6ddff;}.cls-4{fill:#8dbffc;}.cls-6{fill:#d32502;}.cls-7{fill:#ff5925;}.cls-8{fill:#fac897;}.cls-9{fill:#f29d59;}.cls-10{fill:#013bff;}.cls-11,.cls-27,.cls-46{fill:#fff;}.cls-12{fill:#007bff;}.cls-13{fill:#5b2f2e;}.cls-14{fill:#2b0d0d;}.cls-15,.cls-24{stroke:#035c8e;}.cls-15,.cls-19{stroke-linecap:round;stroke-linejoin:round;}.cls-16{fill:#c7ddff;}.cls-17{fill:#dcecff;}.cls-18{fill:#5d9fff;}.cls-19,.cls-40,.cls-48{stroke:#fff;}.cls-19,.cls-46{stroke-width:2.26px;}.cls-20{fill:#04794a;}.cls-21{fill:#e8311f;}.cls-22{fill:#12a072;}.cls-23{stroke:#04794a;}.cls-25{fill:#407bff;}.cls-26{opacity:0.3;}.cls-27{opacity:0.5;}.cls-28{fill:#291515;}.cls-29{fill:#523332;}.cls-30{fill:#ecc697;}.cls-31{fill:#355c8a;}.cls-32{fill:#dc9b5d;}.cls-33{fill:#de592d;}.cls-34{fill:#fafafa;}.cls-35{fill:#263238;}.cls-36{fill:#233df9;}.cls-37{fill:#ffc3bd;}.cls-38{fill:#457afa;}.cls-39{fill:#235ef9;}.cls-40{stroke-width:0.55px;}.cls-41{fill:#c23510;}.cls-42{fill:#82a9ff;}.cls-43{fill:#6aacef;}.cls-44{fill:#f5f5f5;}.cls-45{fill:#69a5ff;}.cls-47{fill:#fcbc29;}.cls-49{fill:#ccd5dd;}.cls-50{stroke-width:3.42px;}.cls-51{fill:#0256ff;}</style></defs><g id="图层_2"><g id="图层_1-2"><g id="图层_2-2"><g id="图层_1-2-2"><path d="M1435.79,202.58a87.22,87.22,0,0,0-52.71-106.26,81.26,81.26,0,0,0-57.84.79h0a88.3,88.3,0,0,0-17.15,9,125.85,125.85,0,0,1-69.92,5.49h-.43a130.64,130.64,0,0,0-16.9-4.27,128.13,128.13,0,0,0-144.6,89.42c-21.78,69.18,15.38,143.29,83,165.49,53,17.45,119.59,7.57,154.67-32.39a88.2,88.2,0,0,0,16.65-29.76c11-32.82,30.94-35.87,30.94-35.87C1399.3,258.09,1425.48,237.9,1435.79,202.58Z" class="cls-1"></path><path d="M1229.08,148.65h98.17" class="cls-2"></path><path d="M1256.17,208.92h98.29" class="cls-2"></path><path d="M1265.14,180.13h125.5" class="cls-2"></path><path d="M1324.63,184.64v19.71" class="cls-2"></path><path d="M1287.35,155.85v19.71" class="cls-2"></path><path d="M1363.73,155.85v19.71" class="cls-2"></path><path d="M118.54,916.82s-407,36.6,287.36,91.5c0,0,58,3.72-21.84,19.82-77.73,15.62,40.94,22.63,48.81,23.06,216.35,10,1028.3,43.92,1136.11-2.5,0,0,70.53-22.69-67.11-30.5-92.19-5.31-5.68-9.09,0-9.52,105.18-8.48,285.72-32.33,199.51-93Z" class="cls-3"></path><path d="M482.47,1001.24c167.3,2.93,303.23-9,303.48-26.53s-135.08-34.16-302.44-37.09-303.23,9-303.54,26.53S315.12,998.37,482.47,1001.24Z" class="cls-4"></path><path d="M1322.19,984.4c124.34,0,225.19-7.19,225.19-16.16S1446.53,952,1322.19,952s-225.14,7.26-225.14,16.23S1197.84,984.4,1322.19,984.4Z" class="cls-4"></path><path d="M1705.16,916.33s-33.44-346.11-349.54-407.11a525.26,525.26,0,0,1-293.29-166.65c-10.55-11.83-21.23-24.4-31.78-37.88-107.63-136-287.62-188.12-447.35-126.08A415.16,415.16,0,0,0,436.29,274.5,399.43,399.43,0,0,0,327.44,492.2c-12.87,80.4-45.27,215.39-120,251.5a114,114,0,0,0-21.23,12.69c-27.27,21.1-82.86,75.88-64.37,161.52Z" class="cls-1"></path><path d="M1014,717H1226.7" class="cls-2"></path><path d="M820,744.19h332.46" class="cls-2"></path><path d="M861.05,771.46h251.74" class="cls-2"></path><path d="M953.37,689.9h159.42" class="cls-2"></path><path d="M953.37,830.38h159.42" class="cls-2"></path><path d="M1020.3,801H1272" class="cls-2"></path><path d="M1028.84,748.52v18.3" class="cls-2"></path><path d="M956.72,748.52v18.3" class="cls-2"></path><path d="M887.47,748.52v18.3" class="cls-2"></path><path d="M1028.84,807v18.3" class="cls-2"></path><path d="M1097.29,807v18.3" class="cls-2"></path><path d="M1028.84,694.54v18.3" class="cls-2"></path><path d="M1097.29,748.52v18.3" class="cls-2"></path><path d="M1097.29,694.23v18.3" class="cls-2"></path><path d="M1062,721.38v18.3" class="cls-2"></path><path d="M1132.44,721.38v18.3" class="cls-2"></path><path d="M773.2,273.52H957.27" class="cls-2"></path><path d="M741.9,300.66H911.69" class="cls-2"></path><path d="M694.12,327.93H922.37" class="cls-2"></path><path d="M712.61,246.38H872" class="cls-2"></path><path d="M788.08,305v18.3" class="cls-2"></path><path d="M788.08,251v18.3" class="cls-2"></path><path d="M856.54,305v18.3" class="cls-2"></path><path d="M856.54,250.71V269" class="cls-2"></path><path d="M821.27,277.85v18.3" class="cls-2"></path><path d="M891.68,277.85v18.3" class="cls-2"></path><path d="M380.46,854.54H196.39" class="cls-2"></path><path d="M486.87,881.74h-245" class="cls-2"></path><path d="M440.86,827.39H281.44" class="cls-2"></path><path d="M365.45,832v18.3" class="cls-2"></path><path d="M296.94,831.72V850" class="cls-2"></path><path d="M332.26,858.87v18.3" class="cls-2"></path><path d="M1533.17,862.34H1349.09" class="cls-2"></path><path d="M1593.63,835.14H1434.26" class="cls-2"></path><path d="M1518.16,839.84v18.3" class="cls-2"></path><path d="M1449.7,839.47v18.3" class="cls-2"></path><path d="M1485,866.68V885" class="cls-2"></path><path d="M261.85,858.87v18.3" class="cls-2"></path><path d="M1132.44,776.7V795" class="cls-2"></path><path d="M1201.14,776.7V795" class="cls-2"></path><path d="M1062,776.7V795" class="cls-2"></path><path d="M994.12,776.7V795" class="cls-2"></path><path d="M923.9,721.62v18.3" class="cls-2"></path><path d="M36.11,916.21H1731.33" class="cls-5"></path><path d="M1200.89,998.31c99.7,0,180.54-9.33,180.54-20.8s-80.84-20.86-180.54-20.86S1020.3,966,1020.3,977.51,1101.14,998.31,1200.89,998.31Z" class="cls-4"></path><path d="M447.57,962.75l-8.66-2.81L502.3,716l8.67,2.68Z" class="cls-6"></path><path d="M651.78,962.75l8.73-2.81L597.18,716l-8.79,2.68Z" class="cls-6"></path><path d="M653.49,723.63H456.54a9.86,9.86,0,0,1-9.45-8.72L407.86,456.4a10.42,10.42,0,0,1,7.8-12.2,9.64,9.64,0,0,1,10.94,8.14c0,.13,0,.26,0,.4l38,249.73H653.73a10.55,10.55,0,0,1,0,21Z" class="cls-7"></path><path d="M429.45,447l7-4.09h.37L459,423h0a3.17,3.17,0,0,1,2-.73h10a3.23,3.23,0,0,1,3.18,3.29h0a3.18,3.18,0,0,1-3.05,3.29h-6.59c0,.37,0,.67.42.86,2,2.19,6.65,4.51,4.64,4.76A181,181,0,0,0,514,429.68a2.79,2.79,0,0,1,2.84,2.76,2.32,2.32,0,0,1,0,.53c-1.83,7.75-11.65,27-78.34,32.33A2.91,2.91,0,0,1,435.8,464l-7.26-12.2a2.8,2.8,0,0,1-.27-4A2.89,2.89,0,0,1,429.45,447Z" class="cls-8"></path><path d="M457,438.16c-4.64-2-2.74-7.57,1.77-8.24,2-.36,4-.55,6.1-.85a2.7,2.7,0,0,0,2.32,1.22l46.67-1.1a2.9,2.9,0,0,1,2.32,1.1C497.12,435.66,476.74,446,457,438.16Z" class="cls-9"></path><path d="M312.74,949.45a31,31,0,0,1-26.36-27.75H259.23a24.74,24.74,0,0,1,1,9.09,36.28,36.28,0,0,1-6.78,19.58,19,19,0,0,0-3.17,9.39h83.34C327.87,951.59,312.74,949.45,312.74,949.45Z" class="cls-10"></path><path d="M250.14,959.88a23.46,23.46,0,0,0,1,9h84.45a12.81,12.81,0,0,0-2-9Z" class="cls-11"></path><path d="M249.71,601.21V927.49h21.42l21.72-326.28Z" class="cls-10"></path><path d="M298.09,601.21h-5.24L261.18,927.49h38.5L327.62,640.8l3.85-39.53Z" class="cls-12"></path><path d="M253.74,963.79A31,31,0,0,1,227.38,936H200.23a24.73,24.73,0,0,1,1,9.09,36,36,0,0,1-6.71,19.58,18.73,18.73,0,0,0-3.24,9.7h83.59C269.3,965.56,253.74,963.79,253.74,963.79Z" class="cls-10"></path><path d="M191.26,974.34a25.11,25.11,0,0,0,1,8.66h84.5a13,13,0,0,0-1.83-8.66Z" class="cls-11"></path><path d="M195.59,601.21l-.36,47.33-2.14,291.52h49.79l27-286.7,4.69-52.15Z" class="cls-12"></path><path d="M309,222.89a28.27,28.27,0,0,0-4.89-12.2,24.7,24.7,0,0,0-32.94-8.78,38,38,0,0,0-11.41,8.29,50,50,0,0,1-20.62,13.3,26.69,26.69,0,0,0-7.87,3.72c-12.69,8.36-56,38.8-30.88,99.55a36.61,36.61,0,0,0,33.56,23c2.75,0,5.25-3.48,8-4.33,4.82-18.3-2.62-26.17.37-42.09,6.83-29.71,27.39-41.05,50.52-56.18a23.51,23.51,0,0,1,.61-8.72s7-2.69,11.53,13.05C305.05,251.5,312.86,245.46,309,222.89Z" class="cls-13"></path><path d="M303.22,279.74a139.17,139.17,0,0,1-7.69-19.27c-12.2,3.11-14.58,24.4-12.2,35.25,3.54,15-4.09,30.5,13.67,48.32a27.46,27.46,0,0,0,8.29-4.82C315.18,330.62,320.49,313.72,303.22,279.74Z" class="cls-13"></path><path d="M291.26,294a43.33,43.33,0,0,1,4.27-33.55,74.89,74.89,0,0,1-2.68-13.24c-23,15.37-56.13,24.4-62.85,54a56.33,56.33,0,0,0,12.21,44.47A24.44,24.44,0,0,0,256,334.52a117.61,117.61,0,0,1,18.54,7.69A27.82,27.82,0,0,0,297.36,344C300.17,328.66,294.74,308.84,291.26,294Z" class="cls-14"></path><path d="M227.38,352.39s22.76-3.47,22.76-35.19c10.8-21.23,30.5-10.44,34.1,10.61a95.09,95.09,0,0,0,2,32.08s-4.95,45-24.84,53.68C261.49,413.51,219.63,377.77,227.38,352.39Z" class="cls-8"></path><path d="M250.14,318.66a104.41,104.41,0,0,0-1.4-17,78.14,78.14,0,0,1,38.62,12.57,57.76,57.76,0,0,0-3.12,13.29C273.93,349.71,262.34,321.53,250.14,318.66Z" class="cls-9"></path><path d="M305.05,244.85s3.54,64.84-25.14,76.25a10.28,10.28,0,0,1-6.1.55c-6.47-1.34-20.93-6.59-28.19-28.06a21.73,21.73,0,0,1-11.59-8A7.45,7.45,0,0,1,237,275.42a7.36,7.36,0,0,1,3.49-.92,10.12,10.12,0,0,1,4.15,1.22,43.58,43.58,0,0,1,.85-10.13,11.28,11.28,0,0,1,7.69-8.36c8.23-2.56,27.82-9.45,33.68-20.19a9,9,0,0,1,10.06-5.24C300.6,232.41,303.4,235,305.05,244.85Z" class="cls-8"></path><path d="M297.79,266s-7.38-3.3-10.19,2.8l-1.89,25.07-8-.61" class="cls-15"></path><path d="M276.62,304.39a13.72,13.72,0,0,1-10.92-8.67" class="cls-15"></path><path d="M284.49,347.7s-6.1,49.1-41.43-5.74c0,0-61.44,13.91-64.61,88.08h42.28l2,200s66.39,11.41,90-6.71L308.16,427s25.63,2.69,38.2-7.44C346.48,419.19,321.22,346.29,284.49,347.7Z" class="cls-12"></path><path d="M438.67,464.57v-24.4s-74.13,13.79-92.93-29a172.9,172.9,0,0,1-6.52-17.38c-3.66-11.83-15.87-45.38-54.91-46.05l-5.13,47.09a189.52,189.52,0,0,0-1.52,24.4l-.43,321.22s54.91-7.2,80.6-46c0,0-40.94-165.85-36.61-232.83l.55.61a84.13,84.13,0,0,1,1.1-9.09C347.76,490.86,410.6,491.71,438.67,464.57Z" class="cls-11"></path><path d="M173.93,411.44c12.57-36.6,37.22-58.19,71-65.94-1.16-2.38-1.71-3.72-1.71-3.72-21.66,3.72-48.81,21.35-60.58,33.43a94,94,0,0,0-21.23,45.68c-7.33,38.37-.92,65.21,3,89.06C165.09,468.41,163.26,442.67,173.93,411.44Z" class="cls-16"></path><path d="M261.24,383c-6.53-16.28-13.24-30.86-16.35-37.45a98.64,98.64,0,0,0-73.21,65.94c-8.24,28.18-12.21,78.69-4.64,109.8,7.2,23.6,17.21,48.8,17.21,48.8l-22,129.62c35.39,30.93,106,40.5,106,40.5l1.59-311.82A117.29,117.29,0,0,0,261.24,383Z" class="cls-11"></path><path d="M184.18,569.79l-21.9,129.93s36.61-16.41,80.9-33.18a67.13,67.13,0,0,1-46.92-15.07l4.46-51.12,17.39,9.09,5.55-7.74-25.26-6.78Z" class="cls-16"></path><path d="M246.66,394,227.44,374.9l24,12.2Z" class="cls-17"></path><path d="M288.7,356.3l12.2,20.25-15.62,11L292.85,398l-12.21,62.4" class="cls-5"></path><path d="M332.75,610.3l7.56,39.83a42.7,42.7,0,0,1-39.9,13.72l-.85-29" class="cls-5"></path><path d="M227.56,602.73l7.75,20.62L208.22,610.3l-.79-13.12Z" class="cls-8"></path><path d="M284.31,347.7s26.84,14.82,28.06,73.93h3.11s3.11-55.64-31.6-79.3Z" class="cls-18"></path><path d="M213.53,450.54c-6.1-37-3.29-97.6,33.38-115.47l-2.81,5.37s-39.29,23.91-27,108.88a2.25,2.25,0,0,0,1.47,1.83c12.2,5.06,19.58,25.19,23.79,44.77a2.07,2.07,0,0,1-1.46,2.5l-3.24.8a1.89,1.89,0,0,1-2.31-1.34h0a2.08,2.08,0,0,1,1.22-2.56l1.9-.61c-2.32-9.7-8.49-32.39-17.82-38.06a3.72,3.72,0,0,0-5.14,1.12l-.17.28a28.87,28.87,0,0,0-1.4,15.37,98.48,98.48,0,0,0,2.68,15.07l3,10.74,1.47-.37a2,2,0,0,1,2.42,1.33.19.19,0,0,0,0,.07v.61a2.13,2.13,0,0,1-1.28,2.5L219,504.52a2,2,0,0,1-2.47-1.23l0-.11c-2.32-7.87-10.19-36.6-4.76-48.19A19.68,19.68,0,0,0,213.53,450.54Z" class="cls-18"></path><path d="M313.16,433.52a8.48,8.48,0,1,0-8.1-8.84c0,.12,0,.24,0,.36A8.36,8.36,0,0,0,313.16,433.52Z" class="cls-18"></path><path d="M313.16,429.25A4.21,4.21,0,1,0,309,425V425A4.2,4.2,0,0,0,313.16,429.25Z" class="cls-11"></path><path d="M241.41,349.71l-14,25.19,24,12.2-7.81,10.8s18.92,34.58,20.93,62.34" class="cls-5"></path><path d="M212.8,734.61c-.73,21.9-1.34,43.86-2,65.76q-1.65,52.15-3.24,104.31c0,8.05-.49,16.22-.73,24.4,0,.79,1.22.79,1.34,0,.67-21.9,1.28-43.86,2-65.76,1.09-34.77,2.07-69.54,3.23-104.31,0-8,.49-16.22.67-24.4C214,733.82,212.8,733.82,212.8,734.61Z" class="cls-11"></path><path d="M323.35,443.1a92.28,92.28,0,0,0-2.13,18.3c4.76,6.1,51.8,47.7,117.39,3.41v-4.94C404.62,481.1,346.78,478.9,323.35,443.1Z" class="cls-16"></path><path d="M265.21,279.56l10.74.3a4.82,4.82,0,1,0,.3-9.63h-10.8a4.82,4.82,0,0,0-4.82,4.69A4.88,4.88,0,0,0,265.21,279.56Z" class="cls-19"></path><path d="M296.08,280.6l10.74.3a4.82,4.82,0,0,0,.3-9.58l-10.73-.3a4.82,4.82,0,0,0,0,9.58Z" class="cls-19"></path><path d="M726.89,893.7a31.41,31.41,0,0,0,26.78,28.12S779,925,776.92,941.4H691.5a21.94,21.94,0,0,1,2.32-18.61,37.43,37.43,0,0,0,6.83-19.88,25.38,25.38,0,0,0-1-9.21Z" class="cls-20"></path><path d="M650.07,888.57a30.14,30.14,0,0,0,18.31,31.91s22.63,8.66,17.2,23.18l-78.7-19.28a21.14,21.14,0,0,1,6.1-16.65A34.89,34.89,0,0,0,623.53,891a21,21,0,0,0,1-8.66Z" class="cls-20"></path><path d="M547.57,346.72c-11.34-8.48-38.31-10-47.59,3.78s-8.66,38.49-5.43,54.17c14.16,4.57,52,12.75,83.29,7.44a33.49,33.49,0,0,1-4-8.66C568.68,386.43,561.3,357.33,547.57,346.72Z" class="cls-21"></path><path d="M581,381.67s29-81.8-54.3-77.47c0,0-37.34-22.32-36.61,98.76a40.36,40.36,0,0,0,9.58,3.17c-3.24-15.8-4.46-33,4.21-46.3s27.94-6.4,39.35,2.14a85.67,85.67,0,0,1,26.91,43.55,22.43,22.43,0,0,0,4,7.32c2.38-.42,4.7-.79,7.14-1.46A77,77,0,0,1,581,381.67Z" class="cls-7"></path><path d="M547.27,404.18a31.76,31.76,0,0,1,.36-3.9c-7.68-12.2-21.17-13.42-31.78-2.08A19.2,19.2,0,0,1,518,407C524.69,423,543,421.44,547.27,404.18Z" class="cls-9"></path><path d="M566.24,363.13S528.48,348.24,520.73,310c0,0-41.49,48.25-7.26,84.36a20.69,20.69,0,0,1,2.32,3.72,32.63,32.63,0,0,0,31.78,2.07,28.15,28.15,0,0,0,12.21-18.3S579.24,377.46,566.24,363.13Z" class="cls-8"></path><path d="M547.27,404.18c-10.8,4.94-21.66,9.39-29.41,2.81a16.77,16.77,0,0,1-6.1,12.2s-5.13,12.2,22.27,24a23.31,23.31,0,0,0,20.19-24.4S546.84,416.38,547.27,404.18Z" class="cls-8"></path><path d="M606.08,607.55c-24.4-18.3-11.53-51-11.53-51-13.6-1.35-46.49-1.83-63.57-2-5.55,77,46.18,89.85,75.23,133.23,39.84,61.67,32.45,128.46,13.48,202.88l44,7.75C734.58,674.47,606.08,607.55,606.08,607.55Z" class="cls-22"></path><path d="M623.53,687.77c-29.22-43.38-70.53-81.32-76.69-133.23-37.52,0-75,2-75,2-17.76,74.11,54.91,118,103.05,138.28a78.53,78.53,0,0,1,47,65.64c6.71,76.85-8.49,129.07-8.49,129.07l11.78,2.07C649.46,826.23,663.31,749.44,623.53,687.77Z" class="cls-20"></path><path d="M584.79,640a81.21,81.21,0,0,1-31-20.07c-17.88-18.78-17.09-35.86-17.09-35.86H492.66c-9.45,28.24-25.38,62-10.86,88.32,25.14,45.39,87.92,35.57,128.13,64.48,56.13,39,70.22,96.2,84.07,162.5h36.12C740.07,710,619.26,652.69,584.79,640Z" class="cls-22"></path><path d="M613.47,732c-40.27-28.85-98.6-17.51-123.74-63-14.52-26.17-6.52-57,2.93-85.4H475.88C417.74,686.18,508.22,713,555.2,720A122.05,122.05,0,0,1,614,745.65a115.88,115.88,0,0,1,18.92,19c43.68,54.9,58.45,134.2,58.45,134.2h6.53C688,836.05,669.66,771.15,613.47,732Z" class="cls-20"></path><path d="M515.85,415.4s19.52,39.35,34.53,0l26.85,10,51.18,186.17H457.21l15.93-180.8Z" class="cls-11"></path><path d="M773.2,591.08a28.85,28.85,0,0,0-17.64-12.2,74,74,0,0,0-22.33,0l-1.09,17.57h38.07a3.54,3.54,0,0,0,3.5-3.58A3.64,3.64,0,0,0,773.2,591.08Z" class="cls-8"></path><path d="M724.57,582.6v13.73h10.8l2.2-17.94A23.79,23.79,0,0,0,724.57,582.6Z" class="cls-9"></path><path d="M581.74,499.83c-6.1-4.21-33.5-8.12-28.55,13.23,8.36,31.78,24.4,73.69,53.75,100.1a390.83,390.83,0,0,1,64.18,77.78s-21.72-74.73-54.42-128.1a90,90,0,0,1,9.15-14.46C599.74,510.44,592.84,509.1,581.74,499.83Z" class="cls-20"></path><path d="M734,597.79V577.84a252.06,252.06,0,0,1-99.51-59,45.76,45.76,0,0,1-12.21-18.3C614.56,477,592.54,418.39,573.5,416a195.76,195.76,0,0,0-24.4-2.56A120.93,120.93,0,0,0,545,469.21a302.6,302.6,0,0,0,8.48,43.73,86.2,86.2,0,0,0,16,14.89,342.47,342.47,0,0,0,32.15,24.76,68.69,68.69,0,0,1,9.09,6.1,47.67,47.67,0,0,1,6.1,4.27h0C628.41,572.05,668.07,598.16,734,597.79Z" class="cls-22"></path><path d="M657.4,572.48V586.2h10.25l3.11-17.75A47.65,47.65,0,0,0,657.4,572.48Z" class="cls-9"></path><path d="M706,581a28.46,28.46,0,0,0-17.57-12.2,55.52,55.52,0,0,0-19.83,0l-2.32,17.44h36.61A3.35,3.35,0,0,0,706,581Z" class="cls-8"></path><path d="M515.79,414.79a223.25,223.25,0,0,1,9.76,54v26.53a167.85,167.85,0,0,0,138,72.41v19.82S583.45,610,512.49,562.78c0,0-21.41,193.3-6.95,245,0,0-89.75-.73-144.24-37.57,0,0,17.88-108.34,69.68-172.69,0,0,35.2-42.7,24.89-87.11,0,0-15.92-75,22.09-90.64A186.23,186.23,0,0,1,515.79,414.79Z" class="cls-22"></path><path d="M444.34,644.39l-13.85-7.74c-4.51,10.25-16.23,40.87-16.72,49.77,0,0,17.33,19.89,52.6,17.14l-76.45,81.8S367.1,776,361.36,770.18c0,0,13.3-92.36,61.69-162l21.53-31.78Z" class="cls-20"></path><path d="M508.34,423l-11.77,11.34,15.92,17.08-4.88,9.15,11,20.5" class="cls-23"></path><path d="M556.6,423l14.22,14.15L556.6,447.73l7.08,9.76s-10.62,19.1-7.08,34" class="cls-23"></path><path d="M504.93,553s-33.5-12.2-43.57-67.1C461.36,485.8,460.26,542.89,504.93,553Z" class="cls-20"></path><path d="M510.54,341.6s10.49,1.34,7.32,9.88l-7.32,19.7,7.93,3.84" class="cls-24"></path><path d="M518.59,382.59a10.28,10.28,0,0,0,12.21,0" class="cls-24"></path><path d="M534.7,364.77l-10.56-3.29a3.12,3.12,0,0,1-1.95-3.84l.61-1.95a2.93,2.93,0,0,1,3.68-1.91h0l10.56,3.3a3,3,0,0,1,1.95,3.84l-.61,1.95A3,3,0,0,1,534.7,364.77Z" class="cls-19"></path><path d="M508.22,355.69l-10.55-3.3a3.11,3.11,0,0,1-1.9-3.84l.61-1.95a2.94,2.94,0,0,1,3.6-2.06l.31.11,10.37,3.05a3.11,3.11,0,0,1,1.89,3.84l-.61,1.95a3.05,3.05,0,0,1-3.71,2.2Z" class="cls-19"></path><path d="M518.1,644.52a91.52,91.52,0,0,0,65.29,54.35,52.46,52.46,0,0,1,14.88,3.84,90.23,90.23,0,0,1,10.13,7.93c6.53,4.88,14.89,6.1,21.85,10.25,14.58,8.84,24.83,23.54,34.59,37.45.49.61,1.52,0,1.1-.61a145.49,145.49,0,0,0-30-34.59,92.58,92.58,0,0,0-21.11-10.3C607,709.6,602.3,702,593.94,699.6s-15.37-2.75-22.94-5.55a87.91,87.91,0,0,1-21.9-12.2,91.5,91.5,0,0,1-29.9-38.19C518.9,643.05,517.8,643.78,518.1,644.52Z" class="cls-11"></path><path d="M683,787.86a172.77,172.77,0,0,1,23.55,83.57.67.67,0,0,0,1.28.4.68.68,0,0,0,0-.4,174.64,174.64,0,0,0-23.73-84.54.74.74,0,0,0-1-.06A.73.73,0,0,0,683,787.86Z" class="cls-11"></path><path d="M484.12,463.59a151.45,151.45,0,0,0,10.74,45.51,23.61,23.61,0,0,0,9.33,12.2c6.1,3.05,13.12-1.95,18.73,1.52s6.41,12.2,7.75,18.3a21.54,21.54,0,0,0,6.1,11.17,61.44,61.44,0,0,0,24.41,13.17.62.62,0,0,0,.76-.46.63.63,0,0,0-.46-.76h0a57.08,57.08,0,0,1-24.58-14c-7.26-7.32-4.21-19.52-11.35-27a12.18,12.18,0,0,0-11.17-2.68,13.87,13.87,0,0,1-12.57-2.69,26.52,26.52,0,0,1-5.36-8,146.43,146.43,0,0,1-11.17-46.24C485.28,462.92,484,462.92,484.12,463.59Z" class="cls-11"></path><path d="M576,570.1a171.47,171.47,0,0,0,27.39,8,160.92,160.92,0,0,0,27,2.13c.79,0,.79-1.22,0-1.34a148.42,148.42,0,0,1-28.07-2.38,173.62,173.62,0,0,1-25.93-7.74.73.73,0,0,0-.42,1.34Z" class="cls-11"></path><path d="M1430.3,972.88h-3.36a2.7,2.7,0,0,1-2.38-2.75L1404.67,828h15.07L1433,969.15C1433,971.05,1431.76,972.88,1430.3,972.88Z" class="cls-25"></path><path d="M1430.3,972.88h-3.36a2.7,2.7,0,0,1-2.38-2.75L1404.67,828h15.07L1433,969.15C1433,971.05,1431.76,972.88,1430.3,972.88Z" class="cls-26"></path><path d="M1471.6,972.88h-3.35a2.69,2.69,0,0,1-2.38-2.75L1446,828h15.07l13.24,141.15C1474.29,971.05,1473.07,972.88,1471.6,972.88Z" class="cls-25"></path><path d="M1471.6,972.88h-3.35a2.69,2.69,0,0,1-2.38-2.75L1446,828h15.07l13.24,141.15C1474.29,971.05,1473.07,972.88,1471.6,972.88Z" class="cls-26"></path><path d="M1241.22,972.88h3.42a2.7,2.7,0,0,0,2.38-2.75L1266.91,828h-15.07l-13.3,141.15a3,3,0,0,0,2.29,3.66Z" class="cls-25"></path><path d="M1241.22,972.88h3.42a2.7,2.7,0,0,0,2.38-2.75L1266.91,828h-15.07l-13.3,141.15a3,3,0,0,0,2.29,3.66Z" class="cls-26"></path><path d="M1199.61,972.88H1203a2.63,2.63,0,0,0,2.38-2.75l20-142.13h-15.13l-13.24,141.15C1196.93,971.05,1198.15,972.88,1199.61,972.88Z" class="cls-25"></path><path d="M1199.61,972.88H1203a2.63,2.63,0,0,0,2.38-2.75l20-142.13h-15.13l-13.24,141.15C1196.93,971.05,1198.15,972.88,1199.61,972.88Z" class="cls-26"></path><path d="M1146.29,659.52h101.58c18.31-64.47,82.92-115,149.24-115H1430c69.31,0,114.22,55.51,100.06,124.38a138.6,138.6,0,0,1-12.93,36.29l-16.23,100c-2.14,13-12.2,23.24-22.33,23.24H1172.89c-10.25,0-20.2-10.55-22.33-23.24l-19.59-122C1129.39,669.77,1136,659.52,1146.29,659.52Z" class="cls-25"></path><path d="M1146.29,659.52h101.58c18.31-64.47,82.92-115,149.24-115H1430c69.31,0,114.22,55.51,100.06,124.38a138.6,138.6,0,0,1-12.93,36.29l-16.23,100c-2.14,13-12.2,23.24-22.33,23.24H1172.89c-10.25,0-20.2-10.55-22.33-23.24l-19.59-122C1129.39,669.77,1136,659.52,1146.29,659.52Z" class="cls-27"></path><path d="M1389.85,374.41a34.75,34.75,0,0,1,6.65-12.69v.61a15.55,15.55,0,0,1,14.76-9.33,16.66,16.66,0,0,1,13.91,10.92,16.34,16.34,0,0,1-5.12,17,3.72,3.72,0,0,1,3.9,3.11,8.08,8.08,0,0,1-1.22,5.31,12.5,12.5,0,0,1-17.14,3.05,10.13,10.13,0,0,1-13.3-2.75A19.83,19.83,0,0,1,1389.85,374.41Z" class="cls-28"></path><path d="M1399.55,321.1c-1.83-5.61-10.56-10.55-15.38-13.36a14.89,14.89,0,0,0-18.3,0c-7.5-6.53-17.21-12.75-26.54-10.25A21.18,21.18,0,0,0,1324,320.12c.92,6.1,4.82,11.17,4.52,17.08a27.71,27.71,0,0,1-3.91,11.17,16.17,16.17,0,0,0-1.46,11.77c1.46,3.41,4.82,5.61,6.59,9a43,43,0,0,1,2.75,8.66,23.71,23.71,0,0,0,26.47,14.88,35.53,35.53,0,0,0,24.78-20.13,80.78,80.78,0,0,0,7.38-32.88" class="cls-29"></path><path d="M1391.37,328.54l-2.07,89.3a18.6,18.6,0,0,1-20.26,16.8l-.24,0c-10.56-.92-26.24-17.69-21.42-22.63,8.42-8.72,6.1-19.28,4.21-20.19,0,0-13.3-3.11-15.07-21.72a209.6,209.6,0,0,1,2.08-37.21,17.93,17.93,0,0,1,19.87-15.76l.63.09" class="cls-30"></path><path d="M1342.87,346.23a2.32,2.32,0,0,0,2.07,2.44c1.22,0,2.44-.61,2.44-1.83a2.38,2.38,0,0,0-2.13-2.5,1.9,1.9,0,0,0-2.32,1.34A1.69,1.69,0,0,0,1342.87,346.23Z" class="cls-31"></path><path d="M1340.73,343.73a10.89,10.89,0,0,1,4.52-.61c2.38.31,4.21,1.53,4.51,1.22s0-.61-.91-1.22a5.51,5.51,0,0,0-3.6-1.28,6.05,6.05,0,0,0-3.6,1C1340.73,343.12,1340.43,343.73,1340.73,343.73Z" class="cls-31"></path><path d="M1366.66,348.67a2.38,2.38,0,0,0,2.14,2.5c1.16,0,2.38-.61,2.38-1.89a2.38,2.38,0,0,0-2.08-2.44,2,2,0,0,0-2.38,1.4A3.18,3.18,0,0,0,1366.66,348.67Z" class="cls-31"></path><path d="M1364.53,345.93a9.34,9.34,0,0,1,4.57-.67c2.44.3,4.21,1.58,4.52,1.28s0-.61-.92-1.28a5.64,5.64,0,0,0-3.6-1.22,6.47,6.47,0,0,0-3.66.91C1364.83,345.26,1364.53,345.56,1364.53,345.93Z" class="cls-31"></path><path d="M1354.46,363.92a15,15,0,0,0-3.9-1c-.61,0-1.22,0-1.22-.61a4.32,4.32,0,0,1,.61-1.83c.61-1.58,1.52-3.11,2.13-4.69a81,81,0,0,0,4.82-12.2,77.19,77.19,0,0,0-6.1,12.2c-.61,1.58-1.53,3.41-2.14,5a5.71,5.71,0,0,0-.54,2.44,1,1,0,0,0,.85,1c.3,0,.61.3.91.3C1353.12,363.92,1354.46,364.23,1354.46,363.92Z" class="cls-31"></path><path d="M1351.9,391.8a44,44,0,0,0,24.1-4.94s-4.82,12.2-22.27,9.63Z" class="cls-32"></path><path d="M1364.53,336c0,.61,2.74.61,5.43.92s5.12,1.52,5.43.91-.31-.91-1.16-1.52a12,12,0,0,0-4-1.89,8.82,8.82,0,0,0-4.21,0C1365.14,335.07,1364.53,335.5,1364.53,336Z" class="cls-31"></path><path d="M1342.26,336.59c.3.61,2.07,0,4.21,0s3.6.61,4.21,0,0-.91-.92-1.52a4.43,4.43,0,0,0-3.29-1.28,4.33,4.33,0,0,0-3.3,1A2.83,2.83,0,0,0,1342.26,336.59Z" class="cls-31"></path><path d="M1358.24,368.56a8.6,8.6,0,0,0-4.51,1.52,2.32,2.32,0,0,0-1.22,1.28,2.66,2.66,0,0,0,0,2.14,3.78,3.78,0,0,0,3.9,2.19,4.27,4.27,0,0,0,3.3-3.11A3.34,3.34,0,0,0,1358.24,368.56Z" class="cls-32"></path><path d="M1351.9,372.89s.61.61,1.83,0a11.9,11.9,0,0,0,3.9-1.22,10.28,10.28,0,0,0,3-2.81c.61-.91.92-1.52.61-1.52s-1.83,1.52-4.51,3.05a26.3,26.3,0,0,1-3.3,1.58C1352.51,372.58,1351.9,372.58,1351.9,372.89Z" class="cls-31"></path><path d="M1364,357.09a.62.62,0,0,0,.55-.67h0a.58.58,0,1,0-1.16,0h0a.61.61,0,0,0,.54.67Z" class="cls-32"></path><path d="M1345.55,353.79a.6.6,0,0,0,.61-.6h0a.6.6,0,0,0-.54-.66h-.07a.69.69,0,0,0-.61.67A.66.66,0,0,0,1345.55,353.79Z" class="cls-32"></path><path d="M1342.26,355.5a.61.61,0,0,0,.61-.61.61.61,0,0,0-1.22,0,.61.61,0,0,0,.61.61Z" class="cls-32"></path><path d="M1341,352.7a.62.62,0,0,0,.61-.61h0a.61.61,0,0,0-.62-.61.6.6,0,0,0-.6.61A.61.61,0,0,0,1341,352.7Z" class="cls-32"></path><path d="M1367,359.89a.61.61,0,0,0,.61-.61h0a.68.68,0,0,0-.61-.61.61.61,0,0,0-.61.61h0a.54.54,0,0,0,.48.61Z" class="cls-32"></path><path d="M1369.41,357.39a.61.61,0,0,0,.55-.61.61.61,0,1,0-1.16,0,.61.61,0,0,0,.61.61Z" class="cls-32"></path><path d="M1357.94,348.67a17.94,17.94,0,0,1,.3-2.74,9.39,9.39,0,0,1,4.21-6.1,10.44,10.44,0,0,1,4.52-2.2,9.32,9.32,0,0,1,5.73.61,10.9,10.9,0,0,1,2.69,1.59,9.28,9.28,0,0,1,2.44,2.44,13.06,13.06,0,0,1,2.13,6.83,12.71,12.71,0,0,1-2.13,6.83,8.8,8.8,0,0,1-2.44,2.5,10.58,10.58,0,0,1-2.63,1.46,11.54,11.54,0,0,1-5.73.68,11.16,11.16,0,0,1-4.52-2.2,14.17,14.17,0,0,1-4.21-6.1c-.3-2.44,0-3.42-.3-3.42v1.59a2.35,2.35,0,0,0,.3,1.22,30.49,30.49,0,0,0,1.16,3.11,9.93,9.93,0,0,0,2.75,3.42,11.58,11.58,0,0,0,4.82,2.13,9.62,9.62,0,0,0,6.1-.61,14,14,0,0,0,3-1.52,9.66,9.66,0,0,0,2.44-2.5,10.87,10.87,0,0,0,2.07-7.14,15,15,0,0,0-2.07-7.14,9.28,9.28,0,0,0-2.44-2.44,8.13,8.13,0,0,0-3-1.58,10.45,10.45,0,0,0-6.1-.61,10.92,10.92,0,0,0-4.82,2.19,9.55,9.55,0,0,0-2.75,3.36c-.55,1.28-.85,2.19-1.16,3.11a3.24,3.24,0,0,0-.3,1.28v2.13Z" class="cls-11"></path><path d="M1353.12,345.26a4.34,4.34,0,0,1,2.68-.31,3.51,3.51,0,0,1,2.44,1l-.61-.67a3.16,3.16,0,0,0-1.83-.61,4,4,0,0,0-2.07,0A1,1,0,0,0,1353.12,345.26Z" class="cls-11"></path><path d="M1360.56,314.57a38.38,38.38,0,0,0,25.63,32c-4.21,6.46-1.47,18.91-1.77,29.15s0,12.2,6.1,17.08C1395.34,394,1398.39,380,1402,376a20.58,20.58,0,0,0,7-14.28c0-2.5-1.22-4.94-1.22-7.44a39.88,39.88,0,0,1,1.22-8.35,31.7,31.7,0,0,0-14.46-32,33.27,33.27,0,0,0-34.71.61" class="cls-29"></path><path d="M1406.75,353a1,1,0,0,0,.3-.61,5,5,0,0,0,.92-1.83,10.49,10.49,0,0,0-.92-7.13,12.15,12.15,0,0,0-2.68-4,43.09,43.09,0,0,0-4.27-3.72,14.13,14.13,0,0,0-5.37-2.81l-6.1-1.89-6.1-1.83a23.46,23.46,0,0,1-5.43-2.5,35.66,35.66,0,0,1-8.42-6.1c-2.14-2.13-3.66-4-4.82-5.25a10.27,10.27,0,0,1-1.22-1.52,1.1,1.1,0,0,1,0-.67,1.1,1.1,0,0,0,0,.67c.3,0,.61.91,1.22,1.52a29.72,29.72,0,0,0,4.51,5.25,35.86,35.86,0,0,0,8.42,6.1,34,34,0,0,0,5.74,2.5l6.1,1.83,6.1,1.89a14.13,14.13,0,0,1,5.37,2.81,43.09,43.09,0,0,1,4.27,3.72,14.47,14.47,0,0,1,3.9,10.86A9.56,9.56,0,0,1,1406.75,353Z" class="cls-28"></path><path d="M1361.54,313.29s0,.37.3.37l1.22,1.22c.92.91,2.38,2.5,4.52,4.33a39.92,39.92,0,0,0,7.81,4.94c1.52.67,3.35,1,5.12,1.59l5.74.91a56.36,56.36,0,0,1,10.92,2.75,32.47,32.47,0,0,1,7.87,4.33,16.88,16.88,0,0,1,3.6,4.94,6,6,0,0,1,.61,1.58,1,1,0,0,0,.3.61v-.61a5.63,5.63,0,0,0-.61-1.58,19.24,19.24,0,0,0-11.77-9.82,51.86,51.86,0,0,0-10.86-2.5l-5.74-.92a13.42,13.42,0,0,1-5.12-1.59,27.2,27.2,0,0,1-7.51-4.63,30.29,30.29,0,0,1-4.51-4l-1.22-1.22C1361.54,313.66,1361.54,313.29,1361.54,313.29Z" class="cls-28"></path><path d="M1341.65,297.49a12.21,12.21,0,0,1,3.9.92,2.12,2.12,0,0,1,1.83.67l2.08.91a16,16,0,0,1,4.51,2.81,19,19,0,0,1,3.66,3.72,5.92,5.92,0,0,1,1.22,1.83c0,.61.55,1.22.86,1.89a13.56,13.56,0,0,1,1.52,3.72,2.74,2.74,0,0,0-.3-1c0-.31-.31-.61-.31-1.22a1.69,1.69,0,0,0-.61-1.53l-.91-1.89c0-.61-.86-1.22-1.16-1.83a45.84,45.84,0,0,0-3.66-4.09,17,17,0,0,0-4.52-2.74c-.61-.31-1.46-.61-2.07-1s-1.22,0-1.83-.61a3.3,3.3,0,0,0-1.53,0h-1.16A5.57,5.57,0,0,0,1341.65,297.49Z" class="cls-28"></path><path d="M1329.26,367l-.61-.61a19.84,19.84,0,0,1-1.46-1.83,10.73,10.73,0,0,1-1.53-3.11,5.46,5.46,0,0,1-.3-2.2,3.27,3.27,0,0,1,.91-2.13,24.91,24.91,0,0,1,3.6-4.39,22.56,22.56,0,0,0,3.3-5.55A27.58,27.58,0,0,0,1335,340a66.77,66.77,0,0,0,.3-7.75,31.87,31.87,0,0,1,.61-7.74,13.9,13.9,0,0,1,3.3-6.1,14.43,14.43,0,0,1,5.12-3.73,12.34,12.34,0,0,1,5.43-1.28,17.62,17.62,0,0,1,7.87,1.89,4.54,4.54,0,0,1,1.77,1.22c.31,0,.31.31.61.31h.55a6.48,6.48,0,0,0-2.38-1.83,16.33,16.33,0,0,0-7.87-1.89,11.17,11.17,0,0,0-5.43,1.28,19.37,19.37,0,0,0-5.12,3.72,22.88,22.88,0,0,0-3.6,6.41,32.38,32.38,0,0,0-.61,7.74,64.63,64.63,0,0,1-.31,7.75,24.79,24.79,0,0,1-5.12,12.2,16.43,16.43,0,0,0-3.3,4.7,20.36,20.36,0,0,0-.91,2.44,4.55,4.55,0,0,0,.3,2.19,14.73,14.73,0,0,0,1.53,3.11c.61.92,1.16,1.22,1.46,1.83Z" class="cls-28"></path><path d="M1331.09,345.93a20.3,20.3,0,0,1,.31-2.81,9.73,9.73,0,0,1,4.21-6.1,10.46,10.46,0,0,1,4.51-2.2,9,9,0,0,1,5.74.68,11.83,11.83,0,0,1,2.74,1.52,9.28,9.28,0,0,1,2.38,2.5,12.17,12.17,0,0,1,0,13.6,9,9,0,0,1-2.38,2.5,10.74,10.74,0,0,1-8.48,2.2,10.35,10.35,0,0,1-4.51-2.2,13.64,13.64,0,0,1-4.21-6.09c-.16-1.12-.26-2.24-.31-3.36v1.53a2.41,2.41,0,0,0,.31,1.22,18.41,18.41,0,0,0,1.22,3.11,8.94,8.94,0,0,0,2.68,3.41,11.83,11.83,0,0,0,4.82,2.2,10.61,10.61,0,0,0,6.1-.61,15.3,15.3,0,0,0,3-1.59,8.55,8.55,0,0,0,2.44-2.5,10.88,10.88,0,0,0,2.14-7.14,15.09,15.09,0,0,0-2.14-7.13,9.14,9.14,0,0,0-2.44-2.44,8.71,8.71,0,0,0-3-1.59,10.61,10.61,0,0,0-6.1-.61,11,11,0,0,0-4.82,2.2,8.45,8.45,0,0,0-2.68,3.41,18.41,18.41,0,0,0-1.22,3.11c0,.31-.31.92-.31,1.22v2Z" class="cls-11"></path><path d="M1390.15,393.38h.31l.91-1A24.29,24.29,0,0,0,1395,389a16.08,16.08,0,0,0,3.36-6.46c.3-1.59,0-2.81.3-4.4a7.4,7.4,0,0,1,1.22-4.33c.86-1.22,2.08-2.13,3-3.41a12.71,12.71,0,0,0,2.44-3.42,19.55,19.55,0,0,0,1.16-3.72,14,14,0,0,0,0-3.42v-4.94a5,5,0,0,1,0-1.89h0c0,.37-.3.67-.3,1.28v2.14c0,1,.3,1.89.3,2.8a16.56,16.56,0,0,1-1.46,7.14,12.93,12.93,0,0,1-2.44,3.42,26.94,26.94,0,0,0-3,3.41,3.46,3.46,0,0,0-.92,2.2,6.71,6.71,0,0,0-.3,2.44,19.59,19.59,0,0,1-.31,4.39,11.33,11.33,0,0,1-3.29,6.47,30.06,30.06,0,0,1-3.36,3.41l-.91,1C1390.15,393.38,1389.85,393.38,1390.15,393.38Z" class="cls-28"></path><path d="M1398.94,374.41v1.28a9.64,9.64,0,0,0,.91,3.42,20.35,20.35,0,0,0,2.38,4.64,21.84,21.84,0,0,0,4.52,4.33,13.79,13.79,0,0,0,5.73,2.19,14.27,14.27,0,0,0,5.13,0,24,24,0,0,0,3.35-.91,2.29,2.29,0,0,1,.86-.37c.3,0,.3,0,.3-.3a10.8,10.8,0,0,1-4.51,1.28,13,13,0,0,1-4.82,0,14.84,14.84,0,0,1-5.74-2.2,20.8,20.8,0,0,1-4.51-4,21.29,21.29,0,0,1-2.44-4.34A15.64,15.64,0,0,1,1398.94,374.41Z" class="cls-29"></path><path d="M1401.93,370.69a5.55,5.55,0,0,0,.3,1.28,10.28,10.28,0,0,0,1.22,2.81,21.41,21.41,0,0,0,6.65,7.44,17.56,17.56,0,0,0,9.34,2.75,8.35,8.35,0,0,0,3,0,3.23,3.23,0,0,0,1.22-.31,13.48,13.48,0,0,1-3.91,0,18.69,18.69,0,0,1-9.09-2.81,17.89,17.89,0,0,1-6.59-7.13A9.15,9.15,0,0,1,1401.93,370.69Z" class="cls-29"></path><path d="M1424.56,362.64a1,1,0,0,0-.61-.31H1423c-.31,0-.61-.3-1.22-.3a10.31,10.31,0,0,0-3.3-.61h-3.9l-4,.91c-1.16.61-2.07.92-3,1.53s-.61.67-.91.67-.61,0-.61.61l-.61.61a15.92,15.92,0,0,1,2.44-1.89,33,33,0,0,1,3-1.53l4-.91a8.34,8.34,0,0,1,3.91,0,7.31,7.31,0,0,1,3,.61C1423.65,362.33,1424.56,362.94,1424.56,362.64Z" class="cls-29"></path><path d="M1407.66,360.5a76.34,76.34,0,0,0,9.95-8.72,107.89,107.89,0,0,0,10.55-10.18,134.13,134.13,0,0,0-11.16,9.33A78.92,78.92,0,0,0,1407.66,360.5Z" class="cls-33"></path><path d="M1384.48,352.39a14.84,14.84,0,0,0-1.53-1.83,5.81,5.81,0,0,0-2.13-1.28,19.66,19.66,0,0,1,1.83,1.59C1383.56,351.78,1384.17,352.7,1384.48,352.39Z" class="cls-11"></path><path d="M1406.14,357.09c.3,0,.3,0,.3-.67a3.54,3.54,0,0,0,.61-2.14,9.88,9.88,0,0,0-2.07-7.44l-1.83-1.89a6.61,6.61,0,0,0-2.44-1.52,30.22,30.22,0,0,0-5.74-2.2c-4.21-.92-9-.61-13.85-1.53a14.61,14.61,0,0,1-6.59-2.19,21.75,21.75,0,0,1-5.12-4,30,30,0,0,1-6.1-9.64c-1.22-3-2.14-5.55-2.75-7.44a8,8,0,0,1-.61-2.13v0a8,8,0,0,0,.61,2.13c.61,1.89,1.22,4.39,2.44,7.44a29.1,29.1,0,0,0,6.1,10,23,23,0,0,0,5.43,4.33,17.19,17.19,0,0,0,6.9,2.19c4.82.61,9.64.61,13.85,1.53a16.6,16.6,0,0,1,9.7,5.31,11.09,11.09,0,0,1,2.07,7.13A5.64,5.64,0,0,1,1406.14,357.09Z" class="cls-34"></path><path d="M1401.32,389a9.7,9.7,0,0,0,.91,3.42,14.07,14.07,0,0,0,2.14,3.41,10.37,10.37,0,0,0,3.9,3.42,12.31,12.31,0,0,0,6.1,1.59,11.83,11.83,0,0,0,6.9-2.2,11.54,11.54,0,0,0,4.88-10.86,15.66,15.66,0,0,0-1.53-4,10.8,10.8,0,0,0-5.73-4.34h0a16.59,16.59,0,0,0,6.65-2.8,18,18,0,0,0,4.21-5.25,10.76,10.76,0,0,0,.91-6.1,8.66,8.66,0,0,0-1.83-4.94,28.33,28.33,0,0,0-3-3.11,22.08,22.08,0,0,0-3-1.28,2.42,2.42,0,0,0-2.07,0h-.92a4.57,4.57,0,0,1,2.69,0c.91.37,1.83.67,3,1.28a12.11,12.11,0,0,1,3,2.81,8.44,8.44,0,0,1,1.52,4.94,20.36,20.36,0,0,1-.91,6.1,13.57,13.57,0,0,1-4.21,4.94,16.2,16.2,0,0,1-6.65,2.8l-.92.31h.92a8.73,8.73,0,0,1,5.43,4,9.14,9.14,0,0,1,1.52,4,8.6,8.6,0,0,1-.3,4,12.13,12.13,0,0,1-4.21,6.52,11.61,11.61,0,0,1-6.65,2.2,13.67,13.67,0,0,1-6.1-1.59,13.45,13.45,0,0,1-3.91-3.41c-.91-1.22-1.52-2.44-2.13-3.42a21.78,21.78,0,0,0-.92-2.44C1401.32,389.66,1401.32,389.36,1401.32,389Z" class="cls-28"></path><path d="M1405.83,354.28a.91.91,0,0,1,.61,0,5.45,5.45,0,0,0,1.83-1.28,20,20,0,0,0,5.13-7.13,17.66,17.66,0,0,0-.61-13,14.92,14.92,0,0,0-4.82-6.1,27.26,27.26,0,0,0-7.26-3.72,37.9,37.9,0,0,0-8.12-1.52,30.43,30.43,0,0,1-7.56-.61,52.1,52.1,0,0,1-6.59-1,32.36,32.36,0,0,1-5.74-1.52,20.69,20.69,0,0,1-7.26-4.64,9.54,9.54,0,0,1-1.46-1.89s-.31,0-.31-.61h0s.61.91,1.77,2.44a25.71,25.71,0,0,0,7.26,5,31.55,31.55,0,0,0,5.74,1.53l6.89,1a54.82,54.82,0,0,1,15.38,2.14,20.45,20.45,0,0,1,7.26,3.72,17.91,17.91,0,0,1,4.82,6.1,15.48,15.48,0,0,1,.61,12.69,16.62,16.62,0,0,1-4.82,7.13,10.66,10.66,0,0,0-1.83,1.59C1406.14,353.79,1406.14,353.79,1405.83,354.28Z" class="cls-28"></path><path d="M1319,342.14s.31.37.61.37a2.19,2.19,0,0,0,1.83-3.11,3.12,3.12,0,0,0-1.52-1.28,5.31,5.31,0,0,0-4.82.67,5.17,5.17,0,0,0-1.83,2.44,6.1,6.1,0,0,0-.31,3.11,6.53,6.53,0,0,0,1.83,3.11,6.81,6.81,0,0,0,3.36,1.53,8.72,8.72,0,0,0,6.89-2.75,8.48,8.48,0,0,0,2.14-3.41,7.13,7.13,0,0,0,.3-4.4,16.1,16.1,0,0,0-1.22-4c-.61-1.22-.91-2.44-1.52-3.72a21.38,21.38,0,0,1-1.47-7.45,27.87,27.87,0,0,1,0-6.83,23.53,23.53,0,0,1,2.14-5.55,15.69,15.69,0,0,1,6.1-6.1,6.51,6.51,0,0,0,2.07-.91c.31,0,.31,0,.61-.31h-.61a7.57,7.57,0,0,0-2.07.61,15.69,15.69,0,0,0-6.1,6.1,21,21,0,0,0-2.38,5.55,18.25,18.25,0,0,0,0,7.14,37.19,37.19,0,0,0,1.46,7.75,18,18,0,0,0,1.53,3.72,16.1,16.1,0,0,1,1.22,4,9.28,9.28,0,0,1-.31,4.09,13.91,13.91,0,0,1-2.13,3.42,8.14,8.14,0,0,1-6.59,2.74,5.43,5.43,0,0,1-3-1.22,5.38,5.38,0,0,1-1.22-6.1,5.49,5.49,0,0,1,1.52-2.13,5,5,0,0,1,4.52-1,3.51,3.51,0,0,1,1.52,1.28,1.34,1.34,0,0,1,0,1.53,2,2,0,0,1-1.83,1.28Z" class="cls-35"></path><path d="M1119.14,931.94l25,11.78a2,2,0,0,1,.92,2.5l-7.81,21.1a4.15,4.15,0,0,1-5.41,2.29l-.33-.15c-8.78-4.33-12.69-6.83-23.85-12.2a272.54,272.54,0,0,1-33.74-20.19,8.24,8.24,0,0,1-3.91-7.75c.31-3.41,3.6-6.1,6.1-4.94,18.31,8.36,30.14,9,38.56,6.83A11,11,0,0,1,1119.14,931.94Z" class="cls-33"></path><path d="M1297.6,614.87S1137,617.07,1134.21,682c-3.6,93.7-16.84,249.43-16.84,249.43l27.09,12.2s47.65-156,49.17-229.24c45.21-11.47,161.56,0,175.17-38.18a129.38,129.38,0,0,0,5.12-61.74Z" class="cls-25"></path><path d="M1297.6,614.87S1137,617.07,1134.21,682c-3.6,93.7-16.84,249.43-16.84,249.43l27.09,12.2s47.65-156,49.17-229.24c45.21-11.47,161.56,0,175.17-38.18a129.38,129.38,0,0,0,5.12-61.74Z" class="cls-36"></path><path d="M1331.7,443.34c-1.52,6.1-2.74,11.47-4.51,17s-3.36,11.16-5.13,16.78c-3.66,11.16-7.56,22-11.77,32.87a282.88,282.88,0,0,1-15.38,32.27,163.44,163.44,0,0,1-10.25,15.8,90.71,90.71,0,0,1-13.85,15.25v.31c-.3,0-.61.61-.91.61a24.09,24.09,0,0,1-10.25,3.72,27,27,0,0,1-7,0,48.31,48.31,0,0,1-9.33-2.2,112,112,0,0,1-13.55-6.1A200.89,200.89,0,0,1,1207.48,555c-7-5.24-13.85-10.49-20.19-16.1a256.09,256.09,0,0,1-19-17.39,9.7,9.7,0,0,1-.3-13.3,9.34,9.34,0,0,1,11.1-1.89c7.26,4,14.22,8.36,21.42,12.2s14.21,8.12,21.41,11.84,14.16,7.44,21.11,10.25a52.41,52.41,0,0,0,9.64,3.35c1.22.37,2.75.67,3,.37h-.61a9.52,9.52,0,0,0-4.21,1.52l-1.52,1.22a43.13,43.13,0,0,0,7.44-9.76,133,133,0,0,0,7.32-12.75,278.83,278.83,0,0,0,12.2-28.85c3.6-9.94,7.2-20.19,10.5-30.5s6.1-21.11,9.09-31.05v-.49a18.31,18.31,0,0,1,22.1-13.48l.47.13A19.32,19.32,0,0,1,1331.7,443.34Z" class="cls-36"></path><path d="M1266.6,945.49h30.14a2.25,2.25,0,0,1,2.08,1.83l1.52,24.4a4.82,4.82,0,0,1-4.69,4.94h-.13c-10.55-.31-15.37-.92-28.67-.92-8.12,0-24.41.92-35.88.92s-10.8-11.47-6.1-12.2a78.65,78.65,0,0,0,37.34-17.08A5.53,5.53,0,0,1,1266.6,945.49Z" class="cls-33"></path><path d="M1340.73,614.87s-145.94,12.75-142.28,77.9c3.91,71.31,67.85,252.84,67.85,252.84h29.53s-25.32-166.29-34.11-238.87c41,0,136.61,8,150.15-30.14a129.34,129.34,0,0,0,5.13-61.73Z" class="cls-25"></path><path d="M1180.94,509.4a46.45,46.45,0,0,0-8.11-10.24c-6.1,6.1-9.34,22.63-9.34,22.63l8.12.61A15,15,0,0,0,1180.94,509.4Z" class="cls-36"></path><path d="M1150.5,494.09l-9.58-3.9a5.26,5.26,0,0,0-7,2.13l-4.51,7.45a6.09,6.09,0,0,0,.61,6.83l12.93,14,21.42-.92a6.39,6.39,0,0,0,5.73-3.72l2.44-5a7.26,7.26,0,0,0-2.13-9A63.58,63.58,0,0,0,1150.5,494.09Z" class="cls-37"></path><path d="M1296.13,436.81c-4.27,27.88-9.94,88.09,1.47,179l119.4-1.22c-.61-63,8.78-122,18.3-180a17,17,0,0,0-13.74-19.77l-.35-.06a422,422,0,0,0-103,0A26.25,26.25,0,0,0,1296.13,436.81Z" class="cls-38"></path><path d="M1436.58,427c3.66,9,6.1,17.69,9.4,26.36s5.43,17.69,7.81,26.71a276.73,276.73,0,0,1,6.1,27.57,217.54,217.54,0,0,1,3.6,29.22,62.63,62.63,0,0,1,0,7.75V549a24.47,24.47,0,0,1-3,11.47,19.71,19.71,0,0,1-5.13,6.1,17.92,17.92,0,0,1-3,2.13,16.16,16.16,0,0,1-3,1.29,27.52,27.52,0,0,1-8.72,1.52,45.4,45.4,0,0,1-10.56-1.52,73.68,73.68,0,0,1-14.52-6.1c-4.21-2.2-8.42-4.64-12.2-6.84a335.13,335.13,0,0,1-44.23-32.45,9.57,9.57,0,0,1-1.16-13.36,8.68,8.68,0,0,1,10.86-2.44h.3c15.62,7.75,31.3,15.5,46.68,22,4,1.53,7.87,3.12,11.47,4.34a60.72,60.72,0,0,0,10.25,2.8h2.44a3.91,3.91,0,0,0-2.44,0,5.33,5.33,0,0,0-1.53.61,6.12,6.12,0,0,0-1.46,1.22,15.74,15.74,0,0,0-3,3.42,9.88,9.88,0,0,0-1.53,5v-2.81c-.3-1.89-.3-3.72-.61-6.1a359.11,359.11,0,0,0-11.16-49.65c-4.82-16.71-10.25-33.49-16-49.9v-.3A19.09,19.09,0,0,1,1413.4,415,19.82,19.82,0,0,1,1436.58,427Z" class="cls-36"></path><path d="M1385,396.49c-10,2.14-20.2,5.25-30.51,6.78a18.28,18.28,0,0,1-11.1,10.24,16.76,16.76,0,0,0-9.7,9.64c-1.47,5.25.3,10.86,16.29,10.86a51.39,51.39,0,0,0,40.08-15.8,4.83,4.83,0,0,0,0-5.31A39.42,39.42,0,0,1,1385,396.49Z" class="cls-30"></path><path d="M1349.15,428.7a12.64,12.64,0,0,1,2.14,4.39,17.74,17.74,0,0,1,4.21-4.39,16,16,0,0,1,8.48,9.94,44.56,44.56,0,0,1-12.69-4.63,22.47,22.47,0,0,1-8.42,2.8A10.51,10.51,0,0,1,1349.15,428.7Z" class="cls-39"></path><path d="M1355.5,428.7a38,38,0,0,1,7.87,18.3s38.56-9.88,36.61-35.62a36.09,36.09,0,0,0-10.56-3.42S1381.43,423.15,1355.5,428.7Z" class="cls-36"></path><path d="M1349.15,428.7a43.23,43.23,0,0,0-8.42,18.3s-19.89-18.3-.61-35.62a40,40,0,0,1,10.25-2.2S1337.44,419.74,1349.15,428.7Z" class="cls-36"></path><path d="M1365.14,492.32,1351.9,484a8.17,8.17,0,0,0-11.29,2.5l-.18.3-1.53,2.75a9.35,9.35,0,0,0,.92,10.25l9,10.85s7.87,18.91,17.2,14l6.71-12.2Z" class="cls-37"></path><path d="M1378.87,516.54a61.37,61.37,0,0,0-7-12.75c-6.65,6.1-12.2,24.4-12.2,24.4l8.17,1.89A15.25,15.25,0,0,0,1378.87,516.54Z" class="cls-36"></path><path d="M1382.34,654.58s-99.51-3.41-146.43,34.47c0,0,6.11,82.53,39.23,235.15" class="cls-40"></path><path d="M1383.56,528.62s38,23.3,55.77,26Z" class="cls-39"></path><path d="M1291,510.32l-18.31,31.05s10.56-15.25,18.31-28.86Z" class="cls-39"></path><path d="M1084.18,947.13c12.2,7.14,45.21,25.44,45.21,25.44s3.6,2.5,7.26-4c0,0-3.66,2.81-12.21-2.13s-51.25-27-52.77-31.66C1071.49,935.06,1074.23,941.58,1084.18,947.13Z" class="cls-41"></path><path d="M1244,978.49c13.85.61,51.55.91,51.55.91s4.21.61,4.52-6.83c0,0-2.14,4.7-11.78,3.72s-54.91,1.28-60.58,0A98.3,98.3,0,0,0,1244,978.49Z" class="cls-41"></path><path d="M1481.24,659.52H1324.75c-10.25,0-16.9,10.56-14.77,23.3l19.59,122c2.13,13,12.2,23.24,22.33,23.24h109.82Z" class="cls-25"></path><path d="M1481.24,659.52H1324.75c-10.25,0-16.9,10.56-14.77,23.3l19.59,122c2.13,13,12.2,23.24,22.33,23.24h109.82Z" class="cls-42"></path><path d="M876.55,544h-66v61h66Z" class="cls-4"></path><path d="M979.36,425.35H707.73v139H979.42Z" class="cls-3"></path><path d="M953.49,551.13H733.84a11.17,11.17,0,0,1-11-11.23v-90a11.17,11.17,0,0,1,11-11.23H953.79a11.18,11.18,0,0,1,11,11.23v89.91a11.17,11.17,0,0,1-11,11.35Z" class="cls-11"></path><path d="M800,457.92H743.67v54.47H800Z" class="cls-12"></path><path d="M765.51,479a6.47,6.47,0,1,1,6.81,6.1h-.71A6.11,6.11,0,0,1,765.51,479Zm17.08,10.43a15.64,15.64,0,0,0-5.73-3.48,8.57,8.57,0,0,0,3.84-7,8.79,8.79,0,0,0-17.51,0,8.57,8.57,0,0,0,3.84,7,14.76,14.76,0,0,0-10.18,13.85h2.44a12.75,12.75,0,0,1,25.5,0h2.44A15.79,15.79,0,0,0,782.59,489.4Z" class="cls-11"></path><path d="M800,519.47H743.67v11.22H800Z" class="cls-7"></path><path d="M823.65,461.15H876.8" class="cls-5"></path><path d="M823.65,470.73H943.24" class="cls-5"></path><path d="M823.65,480.43H943.24" class="cls-5"></path><path d="M823.65,490.13H943.24" class="cls-5"></path><path d="M823.65,499.77H943.24" class="cls-5"></path><path d="M823.65,509.46H943.24" class="cls-5"></path><path d="M823.65,519.16H943.24" class="cls-5"></path><path d="M823.65,528.86h97.62" class="cls-5"></path><path d="M973.68,649H855V920.35l118.67-74.9Z" class="cls-43"></path><path d="M855,920.35v56H973.68V845.45Z" class="cls-4"></path><path d="M1014.74,961.1H809.62v18.61h205.12Z" class="cls-43"></path><path d="M810.35,594.62H612.86V605H810.35Z" class="cls-4"></path><path d="M1250.19,619.93H584.42v29h665.77Z" class="cls-4"></path><path d="M1267,601.09H567.71v19H1267Z" class="cls-3"></path><path d="M1010.29,537.59l-.3-32.82,112.62,9.57,3.18,29.47Z" class="cls-12"></path><path d="M1022.8,538.44a76.85,76.85,0,0,0,0-16.47,76,76,0,0,0-1.47-16.35,76.29,76.29,0,0,0,0,16.41A76.57,76.57,0,0,0,1022.8,538.44Z" class="cls-44"></path><path d="M1027.86,538.5a72.25,72.25,0,0,0,.49-16.1,82,82,0,0,0-1.16-16.11,74.18,74.18,0,0,0-.55,16.11A74.32,74.32,0,0,0,1027.86,538.5Z" class="cls-44"></path><path d="M1037.2,520.57c19.46,2.07,42.71,3.6,62.53,5.36Z" class="cls-11"></path><path d="M1099.92,525.93a54,54,0,0,1-9.34,0c-5.79,0-13.36-.85-22.08-1.46s-16.6-1.52-22.09-2.07a36,36,0,0,1-9-1.53,53.15,53.15,0,0,1,9.27,0c6.11.61,13.67.92,22.15,1.53s16.6,1.16,22.09,2.07A64.1,64.1,0,0,1,1099.92,525.93Z" class="cls-44"></path><path d="M1108.15,542.89a60.72,60.72,0,0,0,0-14.88,62.66,62.66,0,0,0-1.58-14.89,63.36,63.36,0,0,0,0,15A67.79,67.79,0,0,0,1108.15,542.89Z" class="cls-44"></path><path d="M1115.05,543.2a68,68,0,0,0-.55-15,64.69,64.69,0,0,0-2.32-14.76,63.41,63.41,0,0,0,.55,15A63.69,63.69,0,0,0,1115.05,543.2Z" class="cls-44"></path><path d="M1054,528c12.5.91,21.78,1.52,31.66,1.83Z" class="cls-11"></path><path d="M1086,529.59a146.33,146.33,0,0,0-32-1.76,72.19,72.19,0,0,0,15.92,1.76A66.3,66.3,0,0,0,1086,529.59Z" class="cls-44"></path><path d="M1017.86,602l-2-32.82,112.88,3.6,4.69,29.22Z" class="cls-12"></path><path d="M1022.49,597.79l109.82-1.46-2.92-20.62-109.22-2.32Z" class="cls-11"></path><path d="M1021.09,569.79l-1.16-33,112.87,7.75,3.79,29.22Z" class="cls-3"></path><path d="M1045,551l-.37,6.1,70.53,4.69.37-6.1Z" class="cls-11"></path><path d="M1130.48,584.07a24.76,24.76,0,0,1-4.39,0H1114.5c-10,.3-23.61.3-38.74.3H1037.2c-4.64,0-8.73,0-11.66-.3a24.09,24.09,0,0,1-4.33,0,22.37,22.37,0,0,1,4.33,0h100.67A23.42,23.42,0,0,1,1130.48,584.07Z" class="cls-3"></path><path d="M1131.64,590.65a23,23,0,0,1-4.39,0h-50.88c-15.13,0-29.11-.61-39-.91-4.7-.31-8.72-.31-12.2-.31a22.37,22.37,0,0,1-4.33,0,28.45,28.45,0,0,1,4.33,0h51.19c15.13,0,29.1.61,39,.92h11.9C1130.42,590.35,1131.64,590.35,1131.64,590.65Z" class="cls-3"></path><path d="M1149.89,0h-6.1V147.8h6.1Z" class="cls-7"></path><path d="M1149.89,229a27.57,27.57,0,1,0-26.9-28.23c0,.18,0,.36,0,.54A27.27,27.27,0,0,0,1149.82,229Z" class="cls-11"></path><path d="M1084.91,204.59h130.5A10.74,10.74,0,0,0,1226,193.65c0-.42,0-.84-.1-1.26a76.22,76.22,0,0,0-36.61-55.45,77.32,77.32,0,0,0-74.13-1.64,73.18,73.18,0,0,0-40.45,57.21,10.55,10.55,0,0,0,8.92,12A9.8,9.8,0,0,0,1084.91,204.59Z" class="cls-45"></path><path d="M423.05,268.4H355.51V233A16.54,16.54,0,0,1,371.8,216.3h51.13A16.54,16.54,0,0,1,439.28,233h0v18.3a16.41,16.41,0,0,1-15.73,17.06Z" class="cls-46"></path><path d="M418.78,236.86H373.44" class="cls-5"></path><path d="M418.78,248.39H373.44" class="cls-5"></path><path d="M1196.26,360.93h65.52V325.61A16.27,16.27,0,0,0,1246,308.84h-49.62a16.28,16.28,0,0,0-15.8,16.76h0v18.3a16.22,16.22,0,0,0,15.4,17Z" class="cls-46"></path><path d="M1200.4,329.4h44.24" class="cls-5"></path><path d="M1200.4,341h44.24" class="cls-5"></path><path d="M1662.27,841.79A47.34,47.34,0,0,1,1687.65,806a29,29,0,0,0,16.23-20.8,23.22,23.22,0,0,0,0-9.82,57.36,57.36,0,0,1-2.32-21.59,28,28,0,0,1,6.1-14.58,40.37,40.37,0,0,0,9.09-22.33,26.39,26.39,0,0,0-5.79-17.63,37,37,0,0,1-7.51-28.24s4.09-29.46-15-32c0,0-21.66,1.7-18.91,36a48.84,48.84,0,0,1-3.66,28.36s-14.34,14.64-5.55,42.7c0,0,6.65,15.68-3.48,26.78C1656.9,772.86,1640.61,790.73,1662.27,841.79Z" class="cls-47"></path><path d="M1642.56,856.55s2.38-38-27-54.23c0,0-8.48-20.19-3.11-35.32a82.29,82.29,0,0,0,5.74-38.91,55.76,55.76,0,0,1-4-51.37,46.89,46.89,0,0,0,16.66-36.6s1.1-36.59,20.62-36c0,0,21.41,6.59,12.69,47.95a73.07,73.07,0,0,0-1.22,35.44s11.84,20.8-1.89,53.25c0,0-9.4,17.81-1.16,33.25C1659.89,773.84,1673.07,799.09,1642.56,856.55Z" class="cls-7"></path><path d="M1647.32,638.11l-5.61,235" class="cls-48"></path><path d="M1684.41,674.65l-25.5,195.75" class="cls-48"></path><path d="M1629,855.21a43.07,43.07,0,0,0-23.8-32,26.54,26.54,0,0,1-15.31-18.3,20,20,0,0,1,0-8.9,51,51,0,0,0-.49-29.16,35,35,0,0,1-10.8-36.6,33.18,33.18,0,0,0,9.4-29.46s-4.34-26.72,13-29.46c0,0,19.77,1,17.94,32.39a44.79,44.79,0,0,0,4,25.74s13.43,13.05,6.11,38.79c0,0-5.68,14.52,3.72,24.4C1632.37,792.56,1647.32,808.6,1629,855.21Z" class="cls-47"></path><path d="M1604.61,715.58,1629,855.21" class="cls-48"></path><path d="M1674.71,915h-60l-6.41-64.24h72.85Z" class="cls-49"></path><path d="M1674.71,915h-60l-6.41-64.24h72.85Z" class="cls-4"></path><path d="M1616.81,860.64h54.91" class="cls-48"></path><path d="M1616.81,905.9h54.91" class="cls-48"></path><path d="M572.34,145.18a55.87,55.87,0,0,0,18.31,75.58,52.62,52.62,0,0,0,58-1.77,11,11,0,0,0,3.54,3.78,9.82,9.82,0,0,0,13.48-3.33,1.13,1.13,0,0,0,.12-.21,10.3,10.3,0,0,0-3.47-13.91h0c.79-1.09,1.52-2.25,2.25-3.47a55.93,55.93,0,0,0-18.3-75.58,53.08,53.08,0,0,0-73,17.44C572.92,144.19,572.63,144.68,572.34,145.18Z" class="cls-4"></path><path d="M657.33,197.33a47,47,0,0,0-15.61-63.62,44.62,44.62,0,0,0-61.35,14.68c-.26.43-.52.86-.77,1.3a47,47,0,0,0,15.69,63.81,44.61,44.61,0,0,0,61.29-14.88Q657,198,657.33,197.33Z" class="cls-1"></path><path d="M657.52,196.72a47,47,0,0,0-16.17-63.44,44.67,44.67,0,0,0-61.19,15.64c-.19.32-.38.63-.56,1" class="cls-50"></path><path d="M587.48,154.94a114.43,114.43,0,0,0,34.71-3.6s8.85,28.06,27.4,31.78c0,0-5.5,15.8-37.83,11.71C611.76,194.83,591.81,186.6,587.48,154.94Z" class="cls-3"></path><path d="M649.59,183s-10,12.2-29.53-3.3c0,0-.55,14.7-8.3,15C611.76,194.83,641.41,200.38,649.59,183Z" class="cls-51"></path></g></g></g></g></svg>